

<svg xmlns="http://www.w3.org/2000/svg">

  <!-- bamboo logo header-->
  <symbol id="bamboo" viewBox="0 0 10 16">
    <path d="M8.30432 15.3444C8.1042 14.5419 7.50741 13.5993 7.04254 12.5814C7.441 13.4539 7.83946 14.3264 8.30432 15.3444ZM9.42699 15.2526C8.7638 14.1647 8.36445 12.9259 7.96509 11.6871C7.63394 11.3263 7.3701 11.4772 7.10626 11.628C6.64499 12.0752 6.18282 12.156 6.71229 12.5869C7.37549 13.6748 7.84035 14.6927 8.1733 15.7861C8.30522 15.7106 8.56906 15.5598 8.70098 15.4844C8.96482 15.3335 9.03033 15.1127 9.42699 15.2526ZM6.57768 11.5635C6.37755 10.761 5.78077 9.81845 5.3159 8.80052C5.71436 9.67303 6.11281 10.5455 6.57768 11.5635ZM4.78463 7.63716C4.65091 6.98006 3.98772 5.89214 3.58926 5.01962C3.98772 5.89214 4.31976 6.61923 4.85104 7.78258C4.85104 7.78258 4.85104 7.78258 4.78463 7.63716ZM5.9073 7.54542C5.31051 6.60292 4.91116 5.36414 4.4454 3.97994C4.18066 3.76453 3.91682 3.91538 3.65298 4.06624C3.1917 4.51337 2.72953 4.59424 3.25901 5.02506C3.8558 5.96756 4.38707 7.13092 4.72001 8.22428C4.85194 8.14885 5.11578 7.99799 5.2477 7.92256C5.44513 7.62629 5.57705 7.55086 5.9073 7.54542ZM3.05799 3.85627C2.92427 3.19916 2.26107 2.11124 1.86262 1.23872C2.26107 2.11124 2.59312 2.83833 3.1244 4.00169L3.05799 3.85627ZM4.18066 3.76453C3.58387 2.82202 3.18452 1.58324 2.71876 0.199041C2.45402 -0.0163686 2.19018 0.134488 1.92633 0.285344C1.46506 0.732477 0.93648 0.667923 1.53237 1.24416C2.12915 2.18667 2.66043 3.35002 2.99337 4.44338C3.12529 4.36795 3.38913 4.2171 3.45465 3.99625C3.71849 3.84539 3.85041 3.76996 4.18066 3.76453ZM3.92669 7.94431C3.39811 7.87976 3.00145 7.73978 2.47287 7.67523C3.00145 7.73978 3.3317 7.73434 3.92669 7.94431C3.13337 7.66435 2.53838 7.45438 1.81147 7.31983C2.40646 7.52981 2.93504 7.59436 3.72836 7.87432C2.86864 7.44894 2.14172 7.3144 1.48033 6.95901C2.07532 7.16898 2.67031 7.37895 3.53003 7.80433C2.80223 7.30352 2.00891 7.02356 1.21559 6.7436C2.00891 7.02356 2.86864 7.44894 3.92669 7.94431C4.12502 8.01431 4.12502 8.01431 3.92669 7.94431ZM3.66285 8.09517C3.66285 8.09517 3.53093 8.1706 3.46452 8.02518C2.47377 8.04149 1.61494 7.98238 0.822518 8.06868C1.54943 8.20322 2.34185 8.11692 3.13427 8.03062C2.34185 8.11692 1.68135 8.1278 1.08726 8.28409C1.74776 8.27321 2.54018 8.18691 3.3326 8.10061C2.6721 8.11148 2.07801 8.26778 1.48392 8.42407C2.27634 8.33777 2.87043 8.18147 3.53093 8.1706C3.06876 8.25147 2.60659 8.33233 2.14442 8.4132C2.60659 8.33233 3.06876 8.25147 3.53093 8.1706C3.66285 8.09517 3.66285 8.09517 3.66285 8.09517ZM4.06131 8.96769C3.79747 9.11854 3.60004 9.41482 3.20427 9.6411C3.46812 9.49025 3.66555 9.19397 4.06131 8.96769C3.66555 9.19397 3.20427 9.6411 2.80851 9.86739C3.20427 9.6411 3.53363 9.2694 3.92939 9.04311C3.40171 9.34483 2.87402 9.64654 2.41275 10.0937C2.7421 9.72197 3.26979 9.42025 3.79747 9.11854C3.26979 9.42025 2.7421 9.72197 2.21442 10.0237C2.7421 9.72197 3.3353 9.19941 3.9949 8.82227C4.12682 8.74684 4.19323 8.89226 4.06131 8.96769ZM4.12772 9.1131C3.9958 9.18853 3.9958 9.18853 3.9958 9.18853C3.46901 9.85651 3.07415 10.4491 2.81121 10.9662C3.07415 10.4491 3.46901 9.85651 3.79837 9.48481C3.53542 10.0019 3.20607 10.3736 2.94313 10.8908C3.20607 10.3736 3.60093 9.78108 3.86388 9.26396C3.60093 9.78108 3.46991 10.2228 3.27248 10.5191C3.46991 10.2228 3.73285 9.70566 3.9958 9.18853C3.86478 9.63023 3.66734 9.9265 3.60183 10.1474C3.79926 9.85108 3.79837 9.48481 3.9958 9.18853L4.12772 9.1131ZM4.45707 8.7414C4.58899 8.66597 4.58899 8.66597 4.72091 8.59054C4.78732 8.73596 4.78732 8.73596 4.98565 8.80595C5.64885 9.89388 6.11371 10.9118 6.44666 12.0052C6.57858 11.9297 6.84242 11.7789 6.97434 11.7035C7.17177 11.4072 7.30369 11.3318 7.63394 11.3263C7.03716 10.3838 6.6378 9.14503 6.17204 7.76083C5.9073 7.54542 5.64346 7.69628 5.37962 7.84714C5.05027 8.21884 4.72001 8.22428 4.6545 8.44512C4.58809 8.29971 4.38976 8.22971 4.32335 8.0843C4.25695 7.93888 4.05862 7.86889 3.72747 7.50806C2.86774 7.08267 1.47943 6.59274 0.752517 6.45819C0.951745 6.89445 2.0098 7.38983 2.86953 7.81521C2.0107 7.75609 0.888029 7.84783 0.228426 8.22497C0.889825 8.58037 3.3335 8.46687 4.05951 8.23515C4.05951 8.23515 4.19143 8.15972 4.25784 8.30514C4.45617 8.37513 4.6545 8.44512 4.72091 8.59054C4.58899 8.66597 4.45707 8.7414 4.25874 8.67141C4.25874 8.67141 4.12682 8.74684 3.86298 8.89769C3.13697 9.12942 2.27993 9.80283 1.81866 10.25C2.21532 10.3899 3.00684 9.93738 3.60004 9.41482C3.20517 10.0074 2.7448 10.8208 2.48185 11.3379C3.07594 11.1816 4.12862 9.47937 4.19323 8.89226C4.32515 8.81683 4.32515 8.81683 4.45707 8.7414Z" />
  </symbol>

  <!-- socials facebook -->
  <symbol id="facebook" viewBox="0 0 8 16">

    <path fill-rule="evenodd" clip-rule="evenodd" d="M8 2.75008H6.4C5.29832 2.75008 5.33342 3.14316 5.33342 3.8619V4.99991H8L7.46658 8H5.33342V16H1.6V8H0V4.99991H1.6V3.58692C1.6 1.33782 2.79742 0 5.62684 0H8V2.75008Z"/>

  </symbol>


  <!-- socials twitter -->
  <symbol id="twitter" viewBox="0 0 16 14">

    <path fill-rule="evenodd" clip-rule="evenodd" d="M16 1.65713C15.4114 1.93821 14.7787 2.12837 14.1147 2.21377C14.7923 1.77623 15.313 1.08372 15.5579 0.258267C14.9237 0.6633 14.2211 0.957523 13.4734 1.11604C12.8747 0.429062 12.0216 0 11.0774 0C9.26464 0 7.79488 1.58227 7.79488 3.53414C7.79488 3.81108 7.82384 4.08093 7.87984 4.33971C5.15168 4.19226 2.73296 2.7851 1.11392 0.646704C0.83136 1.16877 0.66944 1.77589 0.66944 2.42363C0.66944 3.64979 1.24896 4.73161 2.12976 5.36552C1.59168 5.34702 1.08544 5.18816 0.64304 4.92349C0.64272 4.93801 0.64272 4.95288 0.64272 4.96775C0.64272 6.68019 1.77424 8.10861 3.27584 8.43343C3.00048 8.51416 2.7104 8.55755 2.41104 8.55755C2.19952 8.55755 1.99392 8.53525 1.79344 8.49394C2.2112 9.89798 3.42336 10.92 4.85984 10.9485C3.73648 11.8964 2.32096 12.4615 0.78304 12.4615C0.51808 12.4615 0.2568 12.4447 0 12.412C1.45264 13.4148 3.17824 14 5.03184 14C11.0698 14 14.3715 8.61443 14.3715 3.94401C14.3715 3.79068 14.3683 3.63821 14.3621 3.4866C15.0035 2.98839 15.56 2.36589 16 1.65713Z"/>

  </symbol>


  <!-- socials instagram -->
  <symbol id="insta" viewBox="0 0 16 16">

    <path fill-rule="evenodd" clip-rule="evenodd" d="M4.70172 0.0482874C3.8501 0.0870031 3.26863 0.222151 2.75974 0.420015C2.23357 0.624308 1.78768 0.898032 1.34294 1.34276C0.897913 1.78749 0.624468 2.23351 0.420169 2.75967C0.2223 3.26869 0.0870054 3.85014 0.0482887 4.7016C0.00928629 5.55491 0 5.82721 0 8C0 10.1728 0.00928629 10.4449 0.0482887 11.2984C0.0870054 12.1499 0.2223 12.7313 0.420169 13.24C0.624468 13.7662 0.897913 14.2125 1.34294 14.6571C1.78768 15.102 2.23357 15.3754 2.75974 15.58C3.26863 15.7779 3.8501 15.913 4.70172 15.9517C5.55506 15.9907 5.82736 16 8.00007 16C10.1729 16 10.4452 15.9907 11.2986 15.9517C12.15 15.913 12.7315 15.7779 13.2407 15.58C13.7664 15.3754 14.2127 15.102 14.6575 14.6571C15.1022 14.2125 15.3755 13.7662 15.5801 13.24C15.7778 12.7313 15.9133 12.1499 15.952 11.2984C15.991 10.4449 16 10.1728 16 8C16 5.82721 15.991 5.55491 15.952 4.7016C15.9133 3.85014 15.7778 3.26869 15.5801 2.75967C15.3755 2.23351 15.1022 1.78749 14.6575 1.34276C14.2127 0.898032 13.7664 0.624308 13.2407 0.420015C12.7315 0.222151 12.15 0.0870031 11.2986 0.0482874C10.4452 0.00942891 10.1729 0 8.00007 0C5.82736 0 5.55506 0.00942891 4.70172 0.0482874ZM4.76747 14.5116C3.98742 14.4761 3.56382 14.3461 3.28209 14.2364C2.9085 14.091 2.6422 13.9177 2.36218 13.6378C2.08216 13.358 1.90886 13.0915 1.76357 12.7181C1.65399 12.4362 1.52384 12.0126 1.48812 11.2326C1.44969 10.389 1.44141 10.1359 1.44141 7.99992C1.44141 5.8637 1.44969 5.61083 1.48812 4.76709C1.52384 3.9872 1.65399 3.56362 1.76357 3.28175C1.90886 2.90831 2.08216 2.64173 2.36218 2.36186C2.6422 2.08199 2.9085 1.90841 3.28209 1.76355C3.56382 1.65398 3.98742 1.52369 4.76747 1.48797C5.61095 1.44954 5.86411 1.4414 8.0001 1.4414C10.1361 1.4414 10.3891 1.44954 11.233 1.48797C12.0128 1.52369 12.4364 1.65398 12.7184 1.76355C13.0918 1.90841 13.3583 2.08199 13.6382 2.36186C13.9182 2.64173 14.0913 2.90831 14.2366 3.28175C14.3462 3.56362 14.4765 3.9872 14.5122 4.76709C14.5507 5.61083 14.5585 5.8637 14.5585 7.99992C14.5585 10.1359 14.5507 10.389 14.5122 11.2326C14.4765 12.0126 14.3462 12.4362 14.2366 12.7181C14.0913 13.0915 13.9182 13.358 13.6382 13.6378C13.3583 13.9177 13.0918 14.091 12.7184 14.2364C12.4364 14.3461 12.0128 14.4761 11.233 14.5116C10.3894 14.5503 10.1364 14.5583 8.0001 14.5583C5.86411 14.5583 5.61095 14.5503 4.76747 14.5116ZM11.3105 3.72943C11.3105 4.25945 11.7403 4.68947 12.2706 4.68947C12.8008 4.68947 13.2305 4.25945 13.2305 3.72943C13.2305 3.19913 12.8008 2.76954 12.2706 2.76954C11.7403 2.76954 11.3105 3.19913 11.3105 3.72943ZM3.8916 8.00017C3.8916 10.2691 5.731 12.1082 7.99986 12.1082C10.2689 12.1082 12.108 10.2691 12.108 8.00017C12.108 5.73124 10.2689 3.89203 7.99986 3.89203C5.731 3.89203 3.8916 5.73124 3.8916 8.00017ZM5.33398 8.00009C5.33398 6.52732 6.52777 5.33343 8.00058 5.33343C9.47339 5.33343 10.6673 6.52732 10.6673 8.00009C10.6673 9.473 9.47339 10.6668 8.00058 10.6668C6.52777 10.6668 5.33398 9.473 5.33398 8.00009Z"/>

  </symbol>


  <!-- socials youtube -->
  <symbol id="youtube" viewBox="0 0 18 13">

    <path fill-rule="evenodd" clip-rule="evenodd" d="M12.0062 5.77285L7.4938 3.51719C7.4938 3.51719 6.24039 2.94726 6.24039 4.01864V9.03097C6.24039 9.03097 6.26358 9.7955 7.4938 9.28148C8.34978 8.92371 12.0062 7.02582 12.0062 7.02582C12.0062 7.02582 12.9391 6.42816 12.0062 5.77285ZM17.5213 10.7852C16.9624 12.3749 15.7669 12.5797 14.7637 12.7901C13.2852 13.1002 3.77237 13.0612 2.22922 12.5394C1.26706 12.2141 0.675032 12.0741 0.223857 9.78271C-0.0650079 8.3165 -0.0840778 4.00304 0.223857 2.51494C0.52204 1.07408 1.27096 0.397534 2.73067 0.259278C6.65148 -0.112151 13.205 -0.0597085 15.265 0.259278C17.1748 0.554861 17.5739 1.69385 17.772 2.76545C18.0927 4.50037 18.1304 9.05243 17.5213 10.7852Z"/>

  </symbol>

  <!-- dollar-donate -->
  <symbol id="dollar" viewBox="0 0 10 20">

    <path d="M8.07792 6.25974C7.66234 5.87013 7.24675 5.58442 6.85714 5.37662C6.46753 5.19481 6.02597 5.09091 5.53247 5.09091C4.96104 5.09091 4.54545 5.22078 4.25974 5.45455C3.97403 5.68831 3.81818 6.07792 3.81818 6.5974C3.81818 6.96104 3.97403 7.2987 4.28571 7.53247C4.5974 7.79221 4.96104 8.02597 5.42857 8.25974C5.8961 8.49351 6.38961 8.72727 6.90909 8.98701C7.42857 9.24675 7.92208 9.53247 8.38961 9.8961C8.85714 10.2597 9.22078 10.6753 9.53247 11.1948C9.84416 11.7143 10 12.3377 10 13.0649C10 14.1818 9.68831 15.1429 9.09091 15.9481C8.49351 16.7532 7.55844 17.2727 6.36364 17.5584V20H4.1039V17.6623C3.42857 17.5844 2.7013 17.4026 1.94805 17.0909C1.19481 16.7792 0.545455 16.3896 0 15.8961L1.50649 13.5844C2.1039 14.026 2.67532 14.3636 3.19481 14.5974C3.74026 14.8312 4.28571 14.9351 4.83117 14.9351C5.48052 14.9351 5.97403 14.8052 6.25974 14.5455C6.57143 14.2857 6.72727 13.8701 6.72727 13.3247C6.72727 12.9091 6.57143 12.5714 6.25974 12.2857C5.94805 12 5.58442 11.7403 5.11688 11.4805C4.64935 11.2208 4.15584 10.961 3.63636 10.7013C3.11688 10.4416 2.62338 10.1299 2.15584 9.76623C1.68831 9.4026 1.32468 8.98701 1.01299 8.49351C0.701299 8 0.545455 7.42857 0.545455 6.72727C0.545455 5.58442 0.857143 4.62338 1.48052 3.87013C2.1039 3.11688 2.98701 2.62338 4.07792 2.41558V0H6.33766V2.36364C7.09091 2.46753 7.74026 2.7013 8.31169 3.03896C8.88312 3.37662 9.37662 3.79221 9.84416 4.28571L8.07792 6.25974Z"/>

  </symbol>
</svg>
